mtllib background_1.mtl
g 背景
v -959.996216 -0.000122 0.995000
v -419.979004 539.977295 0.995000
v -959.996216 1079.994507 0.995000
v 959.996277 1079.994507 0.995000
v 420.018738 539.977417 0.995000
v 959.996277 -0.000122 0.995000
v -959.996216 -0.000122 0.995000
v -959.996216 1079.994507 0.995000
v -959.996216 -0.000122 -0.995000
v -959.996216 1079.994507 -0.995000
v -959.996216 1079.994507 0.995000
v 959.996277 1079.994507 0.995000
v -959.996216 1079.994507 -0.995000
v 959.996277 1079.994507 -0.995000
v 959.996277 1079.994507 0.995000
v 959.996277 -0.000122 0.995000
v 959.996277 1079.994507 -0.995000
v 959.996277 -0.000122 -0.995000
v 959.996277 -0.000122 0.995000
v -959.996216 -0.000122 0.995000
v 959.996277 -0.000122 -0.995000
v -959.996216 -0.000122 -0.995000
v -959.996216 -0.000122 -0.995000
v -419.979004 539.977295 -0.995000
v -959.996216 1079.994507 -0.995000
v 959.996277 1079.994507 -0.995000
v 420.018738 539.977417 -0.995000
v 959.996277 -0.000122 -0.995000
vt 0.000000 0.000000
vt 0.281260 0.499982
vt 0.000000 1.000000
vt 1.000000 1.000000
vt 0.718761 0.499982
vt 1.000000 0.000000
vt 1.000000 1.000000
vt 0.820000 1.000000
vt 1.000000 0.000000
vt 0.820000 0.000000
vt 0.820000 1.000000
vt 0.500000 1.000000
vt 0.820000 0.000000
vt 0.500000 0.000000
vt 0.500000 1.000000
vt 0.320000 1.000000
vt 0.500000 0.000000
vt 0.320000 0.000000
vt 0.320000 1.000000
vt 0.000000 1.000000
vt 0.320000 0.000000
vt 0.000000 0.000000
vt 0.000000 0.000000
vt 0.281260 0.499982
vt 0.000000 1.000000
vt 1.000000 1.000000
vt 0.718761 0.499982
vt 1.000000 0.000000
vn 0.000000 0.000000 0.998307
vn 0.000000 0.000000 1.000000
vn 0.000000 0.000000 1.000000
vn 0.000000 0.000000 0.998307
vn 0.000000 0.000000 1.000000
vn 0.000000 0.000000 1.000000
vn -1.000000 0.000000 0.000000
vn -1.000000 0.000000 0.000000
vn -1.000000 0.000000 0.000000
vn -1.000000 0.000000 0.000000
vn 0.000000 1.000000 0.000000
vn 0.000000 1.000000 0.000000
vn 0.000000 1.000000 0.000000
vn 0.000000 1.000000 0.000000
vn 1.000000 0.000000 0.000000
vn 1.000000 0.000000 0.000000
vn 1.000000 0.000000 0.000000
vn 1.000000 0.000000 0.000000
vn 0.000000 -1.000000 0.000000
vn 0.000000 -1.000000 0.000000
vn 0.000000 -1.000000 0.000000
vn 0.000000 -1.000000 0.000000
vn 0.000000 0.000000 -0.998307
vn 0.000000 0.000000 -1.000000
vn 0.000000 0.000000 -1.000000
vn 0.000000 0.000000 -0.998307
vn 0.000000 0.000000 -1.000000
vn 0.000000 0.000000 -1.000000
usemtl 背景 フロント膨張マテリアル
f 3/3/3 1/1/1 2/2/2
f 5/5/5 4/4/4 2/2/2
f 6/6/6 4/4/4 5/5/5
f 1/1/1 6/6/6 2/2/2
f 3/3/3 2/2/2 4/4/4
f 5/5/5 2/2/2 6/6/6
usemtl 背景 フロントベベルマテリアル
f 1/1/1 1/1/1 1/1/1
usemtl 背景 押し出しマテリアル
f 9/9/9 7/7/7 8/8/8
f 9/9/9 8/8/8 10/10/10
f 13/13/13 11/11/11 12/12/12
f 13/13/13 12/12/12 14/14/14
f 17/17/17 15/15/15 16/16/16
f 17/17/17 16/16/16 18/18/18
f 21/21/21 19/19/19 20/20/20
f 21/21/21 20/20/20 22/22/22
usemtl 背景 バックベベルマテリアル
f 1/1/1 1/1/1 1/1/1
usemtl 背景 バック膨張マテリアル
f 23/23/23 25/25/25 24/24/24
f 26/26/26 27/27/27 24/24/24
f 26/26/26 28/28/28 27/27/27
f 28/28/28 23/23/23 24/24/24
f 24/24/24 25/25/25 26/26/26
f 24/24/24 27/27/27 28/28/28
